<?xml version="1.0" standalone="no"?>
<!DOCTYPE svg PUBLIC "-//W3C//DTD SVG 20010904//EN"
 "http://www.w3.org/TR/2001/REC-SVG-20010904/DTD/svg10.dtd">
<svg version="1.0" xmlns="http://www.w3.org/2000/svg"
 width="735.000000pt" height="941.000000pt" viewBox="0 0 735.000000 941.000000"
 preserveAspectRatio="xMidYMid meet">

<g transform="translate(0.000000,941.000000) scale(0.100000,-0.100000)"
fill="#000000" stroke="none">
<path d="M0 5730 c0 -3197 2 -3680 14 -3680 8 0 18 5 21 10 20 32 149 70 240
71 28 0 150 -17 208 -30 57 -12 178 -69 247 -116 27 -18 64 -37 82 -40 18 -4
42 -13 53 -20 11 -7 48 -16 82 -20 61 -7 63 -6 74 19 9 20 9 35 1 65 -16 50
-15 203 0 255 7 22 21 49 30 58 10 10 18 24 18 32 0 8 14 20 30 28 25 10 30
17 25 36 -3 12 -1 22 5 22 5 0 10 7 10 15 0 8 -4 15 -10 15 -5 0 -10 7 -10 17
0 9 -20 35 -44 57 -58 55 -69 101 -72 301 -1 88 -7 178 -14 200 -14 48 -13
400 0 460 6 22 25 71 43 109 29 60 40 72 78 90 30 14 45 28 47 44 2 12 9 22
17 22 7 0 19 14 27 30 7 17 18 30 25 30 6 0 14 9 18 19 3 11 25 29 48 40 23
12 35 21 27 21 -8 0 -1 7 15 16 28 14 75 74 75 95 0 9 14 13 37 10 6 -1 14 3
18 9 3 5 15 10 26 10 10 0 19 4 19 9 0 5 10 13 23 17 12 4 24 10 27 13 3 4 22
20 43 36 22 16 43 39 48 52 5 15 20 26 38 29 17 4 33 16 40 30 6 14 21 29 33
34 38 15 121 79 140 108 10 15 18 23 18 18 0 -5 10 0 23 12 12 12 31 21 42 21
33 0 79 13 95 26 34 30 147 57 233 58 15 0 27 4 27 8 0 5 9 9 21 9 11 0 17 -4
14 -10 -4 -6 5 -10 19 -10 16 0 26 6 26 15 0 9 9 15 25 15 13 0 28 7 33 16 7
12 25 16 71 16 51 0 67 4 85 22 14 14 34 21 61 21 113 1 134 5 129 20 -5 11 1
15 25 15 22 0 31 -5 31 -16 0 -11 5 -14 17 -9 10 3 38 11 63 17 51 12 77 22
102 40 14 10 21 9 38 -7 21 -19 22 -19 35 -1 11 15 31 18 119 22 62 2 106 0
106 -6 0 -5 18 -15 40 -21 21 -7 54 -26 72 -43 55 -53 108 -117 108 -132 0
-13 13 -19 34 -15 21 4 166 -50 166 -61 0 -5 -9 -8 -21 -8 -11 0 -17 -4 -14
-10 3 -5 18 -9 33 -8 15 1 58 1 95 0 63 -2 68 -4 62 -21 -5 -16 0 -20 22 -24
18 -2 11 -5 -19 -6 -64 -2 -62 -21 2 -21 46 0 50 -2 50 -23 0 -21 4 -23 38
-19 33 3 35 2 20 -11 -23 -18 -13 -27 28 -27 27 0 34 -5 43 -31 6 -18 11 -41
11 -52 0 -14 5 -18 20 -14 13 3 21 -1 26 -15 11 -36 64 -107 85 -113 12 -4 18
-13 15 -23 -2 -9 -7 -38 -11 -64 -6 -44 -5 -48 15 -48 24 0 38 -26 22 -42 -8
-8 -19 -8 -39 1 -24 11 -29 10 -40 -5 -8 -10 -11 -24 -9 -30 2 -6 -3 -11 -12
-10 -9 0 -17 -6 -17 -14 0 -8 8 -14 18 -14 9 1 17 -2 17 -6 0 -4 14 -21 31
-38 39 -38 42 -62 39 -357 -1 -201 0 -212 20 -238 17 -21 30 -27 61 -27 28 0
39 -4 39 -15 0 -9 10 -20 23 -25 29 -12 57 -35 57 -46 0 -5 9 -15 20 -22 11
-7 20 -20 20 -28 0 -18 36 -17 179 5 81 13 191 4 191 -15 0 -9 11 -14 29 -14
16 0 31 -6 34 -14 3 -7 26 -17 50 -20 35 -5 46 -12 51 -29 3 -12 1 -26 -4 -31
-4 -4 -6 -15 -3 -22 6 -17 -38 -19 -67 -4 -10 5 -99 12 -197 14 -98 3 -198 7
-222 9 -25 3 -55 1 -68 -4 -15 -6 -23 -5 -23 2 0 8 -4 8 -14 0 -7 -6 -21 -9
-29 -5 -21 7 -171 -43 -217 -73 -19 -13 -40 -23 -46 -23 -6 0 -17 -7 -24 -15
-21 -26 -50 -18 -65 18 -7 17 -25 43 -39 56 -14 14 -26 32 -26 41 0 9 -5 21
-12 28 -17 17 -77 15 -84 -3 -4 -8 -14 -15 -24 -15 -10 0 -23 -7 -30 -15 -7
-8 -18 -15 -25 -15 -19 0 -138 -98 -153 -126 -7 -14 -25 -30 -40 -36 -22 -9
-24 -12 -9 -15 15 -4 14 -9 -13 -43 -16 -21 -30 -45 -30 -53 0 -9 -5 -19 -10
-22 -6 -3 -10 -13 -10 -21 0 -8 -10 -28 -22 -44 -20 -28 -21 -38 -20 -270 1
-133 4 -246 8 -252 4 -6 10 -84 15 -173 8 -175 27 -247 69 -260 11 -3 20 -10
20 -13 0 -4 13 -22 29 -39 30 -33 36 -57 47 -185 5 -51 2 -74 -11 -100 -13
-27 -31 -146 -37 -253 -1 -11 -6 -26 -11 -32 -5 -7 -6 -13 -2 -13 5 0 1 -8 -7
-17 -8 -10 -22 -34 -31 -54 -17 -38 -57 -64 -103 -68 -8 0 -12 -6 -9 -11 4 -6
-10 -10 -34 -10 -43 0 -91 -17 -91 -33 0 -11 36 -58 44 -57 4 0 19 -6 36 -15
16 -8 53 -15 83 -15 74 0 109 -19 112 -62 2 -18 -1 -39 -7 -46 -8 -9 -6 -12 6
-12 9 0 16 -4 16 -8 0 -10 -107 -8 -167 3 -37 6 -45 4 -70 -19 -15 -14 -36
-26 -46 -26 -11 0 -31 -13 -45 -28 -22 -24 -33 -28 -63 -24 -32 3 -39 0 -55
-27 -18 -31 -58 -43 -66 -20 -7 20 -47 1 -41 -20 5 -21 -18 -42 -25 -23 -5 17
-29 15 -36 -3 -7 -19 -26 -19 -26 0 0 20 -20 19 -36 -2 -8 -11 -13 -13 -14 -5
0 20 -56 14 -71 -8 -16 -24 -100 -39 -211 -40 -62 0 -87 -11 -55 -23 6 -3 -2
-6 -20 -6 -20 -1 -35 5 -42 16 -8 15 -30 18 -163 20 -84 1 -229 4 -323 7 -93
2 -180 0 -193 -5 -15 -6 -36 -4 -65 7 -23 9 -57 18 -75 21 -22 4 -32 10 -30
21 2 10 -8 19 -29 25 -18 6 -33 14 -33 18 0 4 -17 11 -37 15 -21 4 -44 12 -52
18 -10 7 -77 10 -210 9 -181 -3 -279 6 -304 27 -16 14 -6 185 12 203 9 9 83
11 289 9 152 -1 294 -5 314 -8 21 -4 59 -1 86 5 32 8 56 9 72 2 22 -8 18 -10
-25 -10 -57 -1 -51 -17 10 -25 22 -3 63 -10 90 -16 64 -15 300 -5 323 12 21
16 25 48 6 48 -8 0 -14 -3 -14 -7 0 -12 -112 -15 -135 -4 -52 24 -96 31 -196
31 -71 0 -109 4 -109 11 0 6 -24 10 -63 8 -35 -1 -68 0 -73 4 -6 3 -43 7 -82
8 -40 1 -75 6 -78 11 -3 4 -15 8 -27 8 -32 0 -154 42 -214 73 -49 25 -60 27
-188 27 -157 0 -179 7 -269 89 -30 27 -68 52 -85 56 -17 4 -31 13 -31 21 0 8
-6 14 -14 14 -21 0 -126 56 -176 95 -55 43 -48 40 -149 54 -47 6 -92 17 -101
26 -9 8 -24 15 -32 15 -9 0 -21 7 -28 15 -9 10 -23 13 -49 9 -30 -5 -43 0 -78
27 -24 18 -43 39 -43 46 0 6 -5 15 -10 18 -7 4 -10 -205 -10 -619 l0 -626
3675 0 3675 0 0 4705 0 4705 -3675 0 -3675 0 0 -3680z m5548 3344 c23 -7 29
-28 11 -40 -7 -4 -16 1 -21 10 -5 9 -13 14 -19 11 -5 -4 -9 1 -9 9 0 18 4 19
38 10z m580 -47 c24 -16 42 -37 46 -54 11 -44 33 -71 75 -93 22 -11 43 -30 46
-42 4 -13 14 -31 23 -41 8 -9 13 -20 9 -23 -5 -5 18 -30 74 -81 10 -8 45 -48
67 -76 12 -14 12 -19 -1 -31 -17 -17 -35 -18 -222 -10 -80 4 -152 1 -188 -6
-43 -8 -62 -8 -72 0 -21 17 -37 -23 -42 -102 -4 -57 -1 -74 18 -108 13 -22 29
-40 36 -40 8 0 16 -6 19 -14 3 -8 20 -18 37 -22 18 -3 37 -10 42 -14 16 -12
124 -20 130 -9 11 17 117 10 161 -12 34 -16 69 -21 161 -25 65 -2 130 -9 146
-16 28 -11 47 -52 31 -68 -15 -14 -84 -24 -84 -11 0 14 -110 13 -128 -2 -7 -5
-26 -10 -42 -9 -20 0 -33 -6 -40 -19 -6 -10 -17 -19 -26 -19 -23 0 -94 -24
-94 -32 0 -7 -68 -24 -82 -20 -4 1 -12 -16 -18 -38 -6 -24 -18 -41 -30 -45
-11 -4 -20 -12 -20 -20 0 -7 -11 -16 -25 -19 -38 -10 -60 -57 -65 -138 0 -4
-14 -22 -30 -40 -33 -36 -54 -94 -45 -130 2 -13 7 -70 10 -128 7 -153 20 -269
38 -320 10 -30 13 -60 9 -90 -7 -44 -8 -45 -52 -53 -51 -9 -107 -2 -112 14 -6
17 -109 48 -143 42 -21 -3 -35 0 -44 11 -7 9 -22 16 -33 16 -28 0 -48 57 -48
134 0 36 -4 68 -10 71 -5 3 -8 47 -6 100 1 52 0 95 -4 95 -3 0 -3 28 1 63 4
34 4 66 0 70 -10 10 -1 101 10 105 5 2 9 9 9 15 0 7 9 18 21 25 16 10 19 19
14 42 -3 16 -2 31 4 35 6 3 11 24 11 46 0 25 4 38 10 34 6 -4 26 -1 45 5 l35
12 0 69 c0 39 4 78 8 87 5 10 3 61 -5 122 -8 58 -15 124 -16 147 -2 24 -10 50
-21 62 -11 12 -14 21 -8 21 15 0 16 77 2 82 -6 2 -4 19 6 45 16 41 13 80 -5
68 -34 -20 -9 62 31 104 17 18 23 34 20 55 -3 34 29 96 50 96 7 0 31 25 53 56
76 105 165 130 253 71z m-403 -727 c3 -5 -1 -10 -9 -10 -9 0 -16 5 -16 10 0 6
4 10 9 10 6 0 13 -4 16 -10z m20 -240 c3 -5 -3 -10 -15 -10 -12 0 -18 5 -15
10 3 6 10 10 15 10 5 0 12 -4 15 -10z m887 -60 c33 0 41 -5 58 -32 11 -18 20
-41 20 -50 0 -22 30 -58 47 -58 20 0 15 -20 -4 -21 -15 0 -14 -3 5 -16 12 -8
22 -23 22 -32 0 -9 5 -22 12 -29 9 -9 7 -12 -10 -12 -12 0 -22 -5 -22 -11 0
-12 -36 -9 -105 10 -22 6 -95 11 -163 11 -68 0 -132 5 -143 10 -26 14 -24 42
6 86 14 20 25 44 25 53 0 9 7 24 15 34 7 11 11 24 9 31 -9 24 38 36 115 31 41
-3 91 -5 113 -5z m-1842 -63 c25 -7 63 -24 85 -38 22 -14 54 -33 70 -42 17 -8
39 -26 51 -39 35 -39 83 -192 89 -286 3 -36 1 -41 -11 -31 -7 6 -20 9 -28 6
-8 -3 -17 1 -20 9 -3 8 -11 14 -19 14 -21 0 -84 72 -105 120 -25 57 -47 77
-125 110 -34 14 -81 38 -104 53 -40 25 -43 30 -43 72 0 31 5 47 18 54 23 14
87 13 142 -2z m2146 -534 c8 -17 14 -36 14 -42 0 -20 -29 -12 -41 12 -7 12
-17 25 -23 29 -7 5 -4 8 7 8 20 0 20 4 8 47 -5 17 -6 34 -3 38 4 4 11 -8 16
-27 4 -18 15 -47 22 -65z m-770 -454 c3 -6 0 -15 -7 -20 -12 -8 -11 -11 4 -20
24 -14 21 -36 -7 -43 -41 -10 -55 1 -51 42 2 21 4 40 4 45 1 11 49 8 57 -4z
m-607 -236 c19 -12 32 -28 36 -49 4 -26 55 -115 75 -134 15 -15 17 -227 2
-242 -7 -7 -12 -25 -12 -41 0 -20 -6 -30 -20 -34 -14 -4 -20 -14 -20 -35 0
-40 -17 -69 -36 -61 -8 3 -12 8 -9 11 3 3 -1 12 -9 21 -18 21 -39 88 -32 100
4 5 1 13 -5 16 -5 4 -8 14 -5 22 3 8 2 11 -4 8 -24 -15 -32 41 -26 179 3 78 8
152 10 166 1 14 4 31 4 38 1 8 7 10 15 6 10 -6 10 -4 0 7 -15 15 -17 39 -4 39
5 0 23 -8 40 -17z m-1579 -2347 c0 -3 -4 -8 -10 -11 -5 -3 -10 -1 -10 4 0 6 5
11 10 11 6 0 10 -2 10 -4z m-3210 -1495 c0 -9 3 -64 6 -123 6 -96 4 -109 -11
-114 -10 -4 -21 -1 -26 7 -10 16 -13 242 -3 252 10 10 34 -4 34 -22z m3740
-431 c0 -11 -7 -20 -15 -20 -17 0 -18 2 -9 24 9 23 24 20 24 -4z m-125 -120
c3 -11 11 -20 18 -20 8 0 8 -3 -1 -12 -15 -15 -42 7 -42 33 0 25 17 24 25 -1z
m90 -110 c4 -6 12 -7 18 -3 17 10 155 3 212 -11 27 -7 43 -15 35 -18 -29 -10
-1 -19 60 -19 48 -1 60 -4 56 -15 -3 -7 2 -17 10 -22 18 -10 23 -70 11 -117
-5 -21 -5 -26 3 -15 8 12 10 12 10 1 0 -18 30 -40 56 -41 11 0 29 -7 40 -15
10 -8 29 -15 42 -15 38 0 84 -29 78 -48 -11 -35 -16 -121 -8 -126 9 -5 8 -52
-2 -90 -3 -13 -16 -26 -28 -30 -19 -5 -20 -8 -8 -15 20 -13 10 -21 -36 -28
-21 -4 -45 -12 -52 -20 -7 -7 -19 -13 -25 -13 -7 0 -20 -8 -29 -17 -26 -28
-46 -43 -58 -43 -6 0 -8 -4 -5 -10 3 -5 2 -10 -3 -10 -5 0 -19 -9 -32 -20 -18
-16 -25 -18 -32 -8 -6 10 -10 10 -17 -1 -5 -7 -32 -16 -60 -19 -28 -2 -54 -9
-57 -13 -3 -5 -50 -9 -105 -9 -55 0 -108 -4 -118 -9 -9 -5 -23 -6 -30 -2 -8 6
5 11 35 17 l49 8 -60 6 -59 5 -16 45 c-21 57 -44 85 -97 116 -24 15 -40 31
-37 38 3 7 -1 18 -8 24 -13 10 -14 60 -5 177 5 66 32 121 67 137 16 7 33 23
39 35 6 13 16 23 22 23 7 0 9 8 5 23 -24 77 -7 149 38 167 30 12 94 12 101 0z
m-3429 -1744 c-2 -43 -9 -51 -26 -31 -7 8 -8 15 -2 15 5 0 13 11 16 25 9 35
13 31 12 -9z m2684 19 c0 -9 -9 -15 -25 -15 -24 0 -32 10 -18 23 12 13 43 7
43 -8z"/>
<path d="M5900 8778 c-60 -11 -82 -31 -73 -65 3 -14 1 -23 -6 -23 -6 0 -11 -8
-11 -18 0 -10 -4 -22 -9 -27 -5 -6 -12 -21 -16 -34 -5 -17 -4 -22 6 -19 7 2
16 15 19 29 5 17 12 23 29 22 12 -2 33 5 47 14 19 12 28 13 33 5 9 -16 80 18
81 38 0 8 19 26 43 40 l42 25 -42 3 c-24 2 -43 7 -43 13 0 11 -26 10 -100 -3z"/>
<path d="M6137 8772 c-22 -3 -28 -8 -25 -25 2 -12 13 -26 26 -32 12 -5 22 -14
22 -20 0 -5 7 1 16 13 8 12 20 20 25 17 5 -4 9 1 9 9 0 9 -4 15 -9 14 -5 -2
-16 4 -23 12 -8 9 -24 14 -41 12z"/>
<path d="M3753 4343 c9 -2 23 -2 30 0 6 3 -1 5 -18 5 -16 0 -22 -2 -12 -5z"/>
<path d="M3865 4340 c-3 -5 1 -10 9 -10 8 0 18 5 21 10 3 6 -1 10 -9 10 -8 0
-18 -4 -21 -10z"/>
<path d="M4180 3831 c0 -12 6 -21 16 -21 9 0 14 7 12 17 -5 25 -28 28 -28 4z"/>
<path d="M3894 3303 c-30 -4 -32 -7 -39 -61 -4 -31 -9 -70 -11 -87 -1 -16 -4
-42 -5 -56 -2 -16 7 -42 21 -62 21 -30 29 -35 50 -30 37 9 60 33 60 63 0 14 4
30 10 36 15 15 24 114 10 114 -6 0 -8 10 -4 24 4 18 -1 28 -24 45 -17 11 -32
20 -34 19 -1 0 -17 -3 -34 -5z"/>
<path d="M5018 2853 c7 -3 16 -2 19 1 4 3 -2 6 -13 5 -11 0 -14 -3 -6 -6z"/>
<path d="M5000 2810 c0 -5 9 -10 20 -10 11 0 20 5 20 10 0 6 -9 10 -20 10 -11
0 -20 -4 -20 -10z"/>
<path d="M2175 2739 c-173 -30 -285 -68 -360 -125 -16 -12 -42 -25 -57 -29
-15 -4 -32 -13 -39 -21 -6 -8 -20 -14 -30 -14 -10 0 -21 -4 -24 -10 -3 -5 -17
-10 -31 -10 -14 0 -27 -6 -30 -14 -3 -8 -24 -18 -47 -21 -23 -4 -66 -18 -94
-32 -45 -21 -53 -30 -53 -53 0 -50 24 -60 151 -60 126 1 159 14 159 63 0 14 8
35 19 48 15 19 27 23 62 22 28 -2 54 5 76 18 67 41 123 3 109 -75 -4 -22 -14
-39 -24 -42 -9 -3 -28 -11 -42 -18 -22 -11 -28 -10 -40 3 -14 14 -15 13 -18
-6 -2 -12 -11 -23 -20 -25 -17 -3 -7 -11 97 -75 20 -13 41 -24 46 -26 31 -12
168 -47 184 -47 10 0 32 -7 47 -15 16 -8 49 -15 73 -15 38 0 43 -2 38 -20 -3
-11 -2 -20 1 -20 4 0 13 -14 21 -31 11 -25 18 -29 36 -25 19 5 24 2 27 -16 3
-22 8 -23 80 -23 67 0 80 3 98 23 11 12 27 22 36 22 14 0 35 38 39 73 2 22
-11 22 -24 0 -8 -16 -12 -15 -37 10 -21 22 -25 30 -15 36 8 5 11 17 7 28 -8
25 10 41 46 41 15 0 40 10 56 23 16 13 37 29 47 34 16 10 16 13 1 50 -9 22
-32 54 -51 71 -19 17 -35 37 -35 43 0 6 -16 17 -35 25 -25 11 -35 21 -35 37 0
37 -52 106 -105 137 -87 52 -216 78 -310 61z"/>
<path d="M2610 2180 c0 -5 7 -10 15 -10 8 0 15 5 15 10 0 6 -7 10 -15 10 -8 0
-15 -4 -15 -10z"/>
<path d="M1373 1750 c-54 -22 -63 -39 -63 -126 0 -104 -8 -148 -25 -134 -9 7
-16 -2 -28 -38 -8 -26 -25 -74 -36 -107 -41 -123 -41 -126 -26 -210 8 -44 14
-92 15 -107 0 -16 5 -28 10 -28 6 0 21 -11 33 -24 21 -22 24 -23 71 -11 27 7
55 20 62 30 7 9 31 22 55 29 l42 13 2 112 c1 86 5 115 16 121 10 7 15 5 17 -5
2 -10 16 -15 43 -15 34 0 39 -3 39 -23 0 -16 -9 -28 -27 -37 l-28 -13 25 -6
c38 -10 40 -54 3 -70 -15 -6 -33 -22 -39 -36 -10 -21 -9 -26 15 -41 14 -10 29
-23 33 -30 6 -9 16 -10 42 -2 27 9 35 17 40 42 9 44 26 14 19 -32 -6 -35 -6
-35 25 -29 25 5 32 3 32 -9 0 -13 23 -54 47 -84 2 -2 8 2 13 10 7 12 12 12 22
2 10 -10 10 -15 -2 -22 -24 -15 -2 -23 29 -11 27 12 30 18 40 89 6 42 12 113
15 157 6 117 40 234 77 264 11 9 25 27 32 41 11 22 21 26 87 31 41 4 93 11
115 18 58 16 101 14 143 -9 37 -19 66 -31 89 -36 18 -3 72 -67 73 -85 0 -8 5
-20 12 -27 9 -9 9 -18 0 -37 -6 -14 -8 -25 -3 -25 12 0 2 -144 -10 -148 -5 -2
-9 -17 -9 -33 0 -18 4 -28 10 -24 6 3 10 17 10 31 0 13 5 24 10 24 14 0 12
-78 -2 -82 -9 -3 -10 -18 -2 -59 8 -47 6 -76 -9 -134 -4 -13 -84 -102 -121
-135 -16 -14 -39 -34 -52 -46 -12 -12 -30 -24 -39 -28 -9 -3 -15 -12 -13 -19
7 -18 53 -20 90 -4 39 18 129 40 135 34 2 -3 23 0 46 5 48 12 51 12 132 22 33
4 76 14 95 21 19 8 46 16 60 18 14 1 36 9 49 16 29 16 242 11 263 -6 13 -11
40 -17 66 -14 23 2 12 17 -22 29 -19 7 -53 27 -77 45 -61 44 -103 67 -128 67
-11 0 -32 11 -47 25 -15 14 -30 25 -34 25 -8 0 -51 86 -77 152 -10 27 -21 48
-25 48 -5 0 -8 4 -8 9 0 5 -15 34 -34 64 -32 55 -33 59 -39 194 -2 76 -8 146
-12 155 -3 9 -23 24 -42 33 -42 20 -120 15 -171 -11 -28 -13 -47 -14 -148 -4
-64 6 -128 9 -141 5 -19 -4 -29 -1 -40 15 -9 13 -21 19 -30 15 -9 -3 -23 1
-32 8 -25 22 -79 37 -111 31 -18 -4 -37 0 -51 10 -13 9 -34 16 -46 16 -13 0
-23 5 -23 10 0 14 -78 49 -108 50 -12 0 -42 10 -65 22 -97 49 -294 82 -354 58z
m313 -420 c9 0 14 -11 14 -30 0 -16 5 -30 11 -30 7 0 8 11 4 30 -5 23 -3 30 8
30 10 0 14 -12 14 -39 0 -31 -4 -41 -23 -50 -13 -6 -25 -20 -25 -31 -1 -11 -3
-24 -4 -30 -1 -5 -3 -22 -4 -37 0 -14 -4 -23 -8 -19 -4 3 -6 25 -4 47 1 26 -2
38 -9 34 -5 -3 -10 -23 -10 -43 0 -52 -13 -69 -30 -38 -7 14 -10 31 -8 38 3 7
1 42 -4 78 -8 60 -7 66 13 83 12 10 29 15 36 12 8 -3 21 -5 29 -5z"/>
<path d="M3578 443 c7 -3 16 -2 19 1 4 3 -2 6 -13 5 -11 0 -14 -3 -6 -6z"/>
</g>
</svg>
